# xmcd
#
# Track frame offsets: 
#        150
#        14973
#        36573
#        51445
#        61760
#        83495
#        96493
#        112748
#        127063
#        140063
#        153668
#        171245
#        185555
#        198380
#
# Disc length: 3020 seconds
#
# Revision: 1
# Processed by: cddbd v1.5.2PL0 Copyright (c) Steve Scherf et al.
# Submitted via: ExactAudioCopyFreeDBPlugin 1.0
#
DISCID=d10bca0e
DTITLE=The Bushwackers Band - The Bushwackers Collection
DYEAR=1992
DGENRE=Country
TTITLE0=Waltzing Matilda
TTITLE1=Van Diemans Land
TTITLE2=Lachlan Tigers
TTITLE3=Lime Juice Tub
TTITLE4=The Flying Pieman
TTITLE5=Theme from "Ben Hall"
TTITLE6=Marijuana Australiana
TTITLE7=Shores of Botany Bay
TTITLE8=Theme From "Cash and Co"
TTITLE9=Hard Luck Stories
TTITLE10=Billy Of Tea
TTITLE11=Clancy Of The Overfolw (Recitation)
TTITLE12=Flash Jack From Gundagai
TTITLE13=And The band Played Waltzing Matilda
EXTD=
EXTT0=
EXTT1=
EXTT2=
EXTT3=
EXTT4=
EXTT5=
EXTT6=
EXTT7=
EXTT8=
EXTT9=
EXTT10=
EXTT11=
EXTT12=
EXTT13=
PLAYORDER=
